<svg xmlns="http://www.w3.org/2000/svg" viewBox="0 0 411.46 519.76"><defs><style>.cls-1{fill:#fcddb9;}.cls-1,.cls-2,.cls-3,.cls-4{stroke:#070707;}.cls-1,.cls-2,.cls-3,.cls-4,.cls-5{stroke-miterlimit:10;}.cls-2{fill:#543f2a;}.cls-3{fill:#fcfbfa;}.cls-4{fill:#f9f7f8;}.cls-5{fill:none;stroke:#000;}.cls-6{fill:#1d1d1b;}</style></defs><g id="color"><circle class="cls-1" cx="199.17" cy="184.04" r="183.54"/><path class="cls-2" d="M1504.59,1313.22l-2.09,1.17s-.85,1.71-.85,1.72l-.29,7.38-.11,13.39-.21,21.43-.22,14.46-.11,21v33.65H1490l-82.94.21c0,.1-1.09-.05-2.94,0-3.88.08-2,10.11-2.08,10.19l.1,8.11.34,17.48.84,3.18,2.73,1.61,18.08.16,41-.56,34.88.85.27,40.68.42,174.38,48.18,1.13-.18-191.84-.2-24.32,29.52.52,59.38.14,6.44.08c.11-.12,3.73-1.54,4.6-2.47.07-.08,1.52-2.51,1.59-2.58,0-4.07-.18-9.51-.18-13.59l-.5-19.71c-.08-.09-2.8-2.47-2.88-2.56s-3.24-.2-3.27-.23c-32.49-.7-62.2-.55-94.7-1.26l.13-109.72s-1.67-3.15-1.69-3.18l-2.62-1.12Z" transform="translate(-1324.8 -1284.88)"/><polygon class="cls-3" points="99.33 183.47 98.04 190.19 98.54 195.52 98.04 203.4 96.63 216.6 95.23 225.25 92.46 233.86 90.86 242.25 88.32 253.06 87.6 261.18 86.84 271.22 86.84 277 88.81 282.75 92.77 286.12 102.18 287.95 109.06 287.95 111.68 285.9 117.94 280.66 122.17 274.91 126.91 266.76 131.69 256.93 136.44 244.55 138.15 236.4 138.15 228.47 138.84 219.29 138.84 212.08 138.84 206.04 141.11 196.31 142.08 186.2 146 190.49 152.11 196.98 160.43 203.16 170.56 208.92 181.38 215.61 190.7 217.28 198.73 217.28 207.83 214.03 218.98 209.5 227.21 204.83 233.31 200.1 240.28 194.84 244.54 190.31 247.48 184.97 250.89 179.96 256.04 172.58 261.09 163.64 266.23 157.11 271.06 151.77 276.52 147.79 285.69 142.97 288.23 142.28 286.54 138.2 280.92 135.68 274.28 134.52 264.31 134.32 261.09 134.32 252.62 139.14 240.52 148.43 227.98 156.79 221.23 161.61 200.08 167.15 193.72 164.38 181.38 155.5 169.48 146.82 164.03 142.97 157.84 137.42 148.47 132.32 142.72 129.46 134.78 127.89 129.61 128.06 125.27 129.65 118.81 133.54 112.13 137.34 110.02 138.95 109.29 141.31 118.02 142.13 119.79 143.4 125.13 152.29 131 164.38 137.79 178.11 140.34 182.92 130.27 183.47 107.77 183.47 99.33 183.47"/><polygon class="cls-4" points="253.23 184.31 252.62 195.68 253.15 212.23 253.91 220.11 253.91 225.92 256.09 237.07 259.48 250.11 261.77 258.25 268.06 266.82 274.91 273.25 283.15 277.79 295.91 281.4 303.94 282.75 309.63 282.25 312.2 280.54 313.48 278.4 309.2 268.54 305.65 260.53 301.91 253.97 300.2 245.83 298.06 238.11 297.94 229.97 297.49 219.25 297.49 212.08 298.06 201.68 297.49 187.97 297.49 184.55 253.23 184.31"/><polygon class="cls-1" points="1.05 466.22 8.06 463.86 28.19 459.25 52.12 453.18 52.12 479.83 54.2 481.65 62.66 481.22 81.78 475.29 91.59 472.75 93.45 486.2 97.03 504.15 94.38 506.82 76.84 512.61 49.04 517.11 13.01 519.22 28.05 487.97 20.34 481.97 10.06 473.12 1.05 466.22"/><polygon class="cls-1" points="323.13 470.82 330.51 474.39 340.48 475.54 351.65 479.1 353.4 466.73 356.73 452.15 372.55 454.59 390.93 459.25 407.66 464.4 410.6 466.3 382.29 488.2 384.36 492.52 397.78 511.36 399.02 515.73 393.52 517.11 374.77 516.68 351.59 512.61 337.61 508.68 317.98 501.68 320.22 488.52 323.13 470.82"/><polygon class="cls-1" points="53.77 417.92 52.28 432.25 52.28 465.68 52.12 479.83 54.2 481.65 62.66 481.22 100.46 470.71 146.66 466.97 220.48 465.25 282.2 467.4 310.06 470.4 330.51 474.39 351.65 479.1 359.88 421.1 358.84 418.08 352.91 415.56 295.38 406.65 239.31 401.64 206 399.95 165.95 399.96 121.38 403 93.95 407.93 53.77 417.92"/><line class="cls-5" x1="317.98" y1="501.68" x2="351.65" y2="479.1"/><line class="cls-5" x1="54.2" y1="481.65" x2="94.38" y2="506.83"/></g><g id="líneas"><path class="cls-6" d="M1490,1427.92h10.71a.5.5,0,0,0,0-1H1490a.5.5,0,0,0,0,1Z" transform="translate(-1324.8 -1284.88)"/><path class="cls-6" d="M1549.14,1427.92h13.28c1.71,0,3.38,0,5.07-.12s3.21-.27,4.8-.29a.5.5,0,0,0,0-1c-1.59,0-3.21.2-4.8.29s-3.36.12-5.07.12h-13.28a.5.5,0,0,0,0,1Z" transform="translate(-1324.8 -1284.88)"/><path class="cls-6" d="M1610.86,1428.77a3.16,3.16,0,0,0,1.52-.2c.23-.14.3-.31.48-.38a6.48,6.48,0,0,1,2.6-.08c1.23.09,2.46.25,3.68.38a147,147,0,0,0,15.43.28c1,0,1.91,0,2.86.07,1.17.06,2.26-.16,3.41-.16s2.6,0,3.89.07a2.71,2.71,0,0,1,1.71.37c.36.26.59.63,1,.86s1,.36,1.34.9a4.25,4.25,0,0,1,.32,1.32c.11.5.33,1,.42,1.51a4.36,4.36,0,0,1-.13,1.24,44.42,44.42,0,0,0,0,4.47V1463a.5.5,0,0,0,1,0v-17.5c0-3.3-.08-6.61,0-9.91a7.29,7.29,0,0,0,0-2.51,10.68,10.68,0,0,0-.78-2.8c-.5-.8-1.41-.91-2.08-1.51a2.85,2.85,0,0,0-2.13-1c-1.3-.06-2.58,0-3.87,0s-2.56.2-3.87.13c-5-.28-10.13.21-15.18-.08-2.83-.15-5.67-.78-8.5-.68a3.5,3.5,0,0,0-1.84.37.93.93,0,0,0-.21.25,5.94,5.94,0,0,1-1,.06.5.5,0,0,0,0,1Z" transform="translate(-1324.8 -1284.88)"/><path class="cls-6" d="M1572.27,1469.49c4.76.14,9.52.32,14.29.34H1605c12,0,24.09-.27,36.11.13,2.36.07,4.41-.1,6.37-1.53a7.3,7.3,0,0,0,3.27-5.44c0-.64-1-.64-1,0-.09,2.32-1.94,4.27-3.91,5.29s-4.17.7-6.24.61c-5.7-.28-11.45-.06-17.16-.06h-35c-5.07,0-10.13-.19-15.2-.34-.64,0-.64,1,0,1Z" transform="translate(-1324.8 -1284.88)"/><path class="cls-6" d="M1501.64,1427c0-2.08-.42-4.12-.44-6.2,0-1.73-.06-3.46,0-5.18.06-3,.17-6,0-9,0-.53-.89-.72-1-.13a2,2,0,0,0,0,.42.5.5,0,0,0,1,0c.23-6.37,0-12.79,0-19.16,0-3.38,0-6.76,0-10.14,0-2.85.16-5.69.11-8.53,0-.89.14-1.78.2-2.67.08-1.12,0-2.25,0-3.37,0-1.74,0-3.48,0-5.22,0-2.23.18-4.45.21-6.67,0-1.79,0-3.59.2-5.37.19-2.15-.25-4.26-.23-6.42s.07-4.48.12-6.73c.07-3.59.2-7.28-.07-10.87-.15-2-.37-4,.53-5.9a3,3,0,0,1,3-2.33c2.16-.48,4.53-.07,6.73-.07h30.13c1.13,0,2.47-.22,3.52.28a4.54,4.54,0,0,1,2,2.18c1,2,.67,4.09.59,6.19-.08,2.33,0,4.68,0,7v30c0,4.78.45,9.54.44,14.33,0,9.17-.17,18.37-.3,27.55,0,2.2,0,4.41,0,6.61,0,.92,0,1.84,0,2.77s-.19,2-.19,3c0,3.62.26,7.26.06,10.88a17.1,17.1,0,0,0,0,3.2c.09.64,1,.36,1-.27a22.58,22.58,0,0,1,.09-3.94c.08-2.19-.08-4.38-.1-6.58,0-3.62.12-7.24.13-10.87,0-9.57,0-19.18.23-28.75.14-4.79,0-9.5-.27-14.28-.29-5.14-.07-10.35-.07-15.5v-23a49.6,49.6,0,0,0,0-6.45,7.23,7.23,0,0,0-2.1-4.3c-1.4-1.28-3-1.11-4.78-1.12h-15.91c-5.15,0-10.31,0-15.47,0-2,0-4.17-.36-6.18.14a4.33,4.33,0,0,0-2.88,1.72c-1.85,3.13-1.08,6.31-1.08,9.74,0,4-.07,8.06-.11,12.09a50.24,50.24,0,0,0,.17,7,37.55,37.55,0,0,1-.11,5.9c-.13,4-.27,8-.27,12,0,2.11.07,4.23-.14,6.34-.12,1.23,0,2.41,0,3.63-.16,3.87-.12,7.74-.24,11.61-.1,3.49.09,7,.09,10.53v10.52c0,1,0,2.09,0,3.13h1s0-.34,0-.16l-1-.13c.14,3,0,6,0,9,0,1.68,0,3.37,0,5.06,0,2.12.4,4.21.44,6.32,0,.64,1,.64,1,0Z" transform="translate(-1324.8 -1284.88)"/><path class="cls-6" d="M1404,1427.13c-1.5.52-1.77,2.48-2,3.87a39.73,39.73,0,0,0-.49,5.22c0,2.56.09,5.13.12,7.69a28.18,28.18,0,0,1-.05,3.79h1a11.82,11.82,0,0,1,.05-2.06l-1,.13a22.5,22.5,0,0,1,0,3.57v5.87a70.46,70.46,0,0,0,.44,10.07c.33,2.24,2,3.3,4.15,3.42,2.29.12,4.66,0,7-.06a96.05,96.05,0,0,1,10,.1,54.47,54.47,0,0,0,8.28.13c5.81-.32,11.6-.29,17.42-.32,3.32,0,6.64.14,10,.14,1.42,0,2.84,0,4.25-.07a2.18,2.18,0,0,1,1.76.74,2,2,0,0,0,1.26.56c.65,0,.64-1,0-1s-1-.83-1.54-1.09a2,2,0,0,0-1-.22c-1.07,0-2.16.06-3.24.07-2.81,0-5.63,0-8.43-.09-5.69-.28-11.41,0-17.09.12-2.57,0-5.12.28-7.68.3-3,0-6-.46-9.06-.43-2.82,0-5.66,0-8.49.07-1.91,0-5.05.67-6.18-1.34a6.25,6.25,0,0,1-.47-2.6c-.1-.94-.36-1.82-.38-2.77,0-1.91,0-3.82,0-5.73v-8.8a3.12,3.12,0,0,0,0-.91.5.5,0,0,0-1,.14,11.82,11.82,0,0,0-.05,2.06.5.5,0,0,0,1,0,24,24,0,0,0,.06-3.06c0-2.2-.06-4.4-.1-6.6a40.15,40.15,0,0,1,.2-4.9c.11-1.07.17-4.58,1.51-5,.6-.21.34-1.18-.27-1Z" transform="translate(-1324.8 -1284.88)"/><path class="cls-6" d="M1404.12,1428.12c1,.1,2.09,0,3.13,0,.72,0,1.45,0,2.17,0l7.31.13c4.24.07,8.44-.54,12.7-.59,4.91,0,9.82-.14,14.71.21.65,0,.64-1,0-1-4.3-.3-8.59-.24-12.9-.22a101.53,101.53,0,0,0-10.75.51,17.93,17.93,0,0,1-3,.1l-7.14-.12c-1,0-1.95,0-2.92,0s-2.23.08-3.33,0c-.64-.07-.63.94,0,1Z" transform="translate(-1324.8 -1284.88)"/><path class="cls-6" d="M1499.52,1497.11a120.38,120.38,0,0,1,.27,13.16v19.55c0,12.52.62,25,.43,37.55,0,3.6,0,7.21,0,10.81a.51.51,0,0,0,.37.48h0a.5.5,0,0,0,.63-.48c0-.71,0-1.42,0-2.12h-1c0,7.21,0,14.42.07,21.63,0,4.08,0,8.16,0,12.24,0,2.56.07,5.16,0,7.72-.32,8.38,0,16.78-.1,25.17,0,2.69.16,5.36.13,8,0,3.3,0,6.6,0,9.9,0,7.71,0,15.42-.12,23.12,0,.55.89.7,1,.14a4.88,4.88,0,0,0,.06-.52.5.5,0,0,0-1-.13l0,.19c-.08.63.88.9,1,.27a.69.69,0,0,1,0-.2l-1-.13a2.11,2.11,0,0,1,0,.25l1,.13q.13-10.65.12-21.32,0-8.79-.12-17.56c-.2-14.54.11-29.09.12-43.62,0-8.45-.07-16.89-.07-25.33a.5.5,0,0,0-1,0c0,.7,0,1.41,0,2.12l.64-.48h0l.36.48c-.09-8.86,0-17.71-.19-26.57-.29-13-.26-26-.26-39,0-3,0-6.05,0-9.07-.07-2.15,0-4.33-.22-6.47-.07-.64-1.07-.64-1,0Z" transform="translate(-1324.8 -1284.88)"/><path class="cls-6" d="M1548.21,1493c0,3.22.3,6.44.41,9.66.09,2.75,0,5.51,0,8.26s.19,5.42.14,8.13-.33,5.25-.37,7.87c-.06,3.26-.14,6.53-.06,9.79.06,2.46.18,4.92.08,7.39-.15,3.62-.19,7.2-.08,10.83.1,3.33.36,6.66.37,10,0,6.5,0,13,0,19.5,0,6,.27,12,0,17.92-.07,1.6,0,3.2,0,4.79s-.13,3.16-.14,4.74c0,3.37,0,6.75,0,10.13s-.24,6.7-.25,10c0,3.55,0,7.1,0,10.64,0,4.46,0,8.91,0,13.36,0,4,.19,8.07.1,12.09-.06,3-.19,6-.19,9.06,0,2-.15,4.07-.08,6.08,0,.65,1,.65,1,0-.06-1.82.08-3.66.08-5.49,0-2.32,0-4.64.11-7,.26-7.38,0-14.8,0-22.19s-.16-14.62.14-21.9c.15-3.36.17-6.71.18-10.07,0-3.18.12-6.36.12-9.54,0-12.61-.05-25.23,0-37.85,0-6.63-.34-13.25-.45-19.88-.06-3.08.28-6.14.21-9.22-.07-2.82-.19-5.64-.13-8.46.15-6.47.55-12.9.33-19.37-.09-2.85.07-5.7,0-8.55-.06-3.61-.42-7.2-.44-10.8a.5.5,0,0,0-1,0Z" transform="translate(-1324.8 -1284.88)"/><path class="cls-6" d="M1550.84,1491.2c.16-.15.34-.29.49-.46a.5.5,0,0,0-.35-.85,1.7,1.7,0,0,0-1.11.9c-.17.46.38.72.73.56a6.77,6.77,0,0,0,1.25-.89l2.38-1.84c1.55-1.21,3.09-2.44,4.66-3.61,1.16-.86,2.33-1.71,3.47-2.59,1.66-1.28,3.47-2.42,5.1-3.72,2.41-1.93,3.21-5.5,4.75-8,1.87-3.13,4.6-5.77,6.26-9a23,23,0,0,1,2.49-3.7,16.42,16.42,0,0,0,2-3.78c.62-1.48,1.94-2.4,2.77-3.76a24.91,24.91,0,0,1,3.26-4.58c2.58-2.72,4.27-6.2,7.11-8.71a37.52,37.52,0,0,1,4.14-2.68c.48-.32,2-1,1.79-1.79a.5.5,0,0,0-.61-.35.93.93,0,0,0-.54.47.51.51,0,0,0,.3.73c.5.18,1.23-.42,1.59-.68a27.8,27.8,0,0,1,2.56-1.71c2-1.08,3.73-2.27,6-2.33a.5.5,0,0,0,0-1,10.06,10.06,0,0,0-4.9,1.57c-.84.48-1.69.91-2.51,1.41a18.12,18.12,0,0,1-2.51,1.78l.3.73q.06-.09-.06,0l-.61-.35c-.13-.4.06-.22-.36,0a7,7,0,0,0-.72.49c-.5.34-1,.69-1.52,1a17.65,17.65,0,0,0-3.39,2.31,36.82,36.82,0,0,0-3.34,3.91c-1,1.27-1.76,2.74-2.88,3.91a22.67,22.67,0,0,0-3,3.63c-.34.57-.63,1.18-1,1.75a17.06,17.06,0,0,1-1.85,2.21,14.13,14.13,0,0,0-1.71,3.38c-.73,1.51-2,2.57-2.81,4a39,39,0,0,1-2.13,3.65c-1.18,1.58-2.32,3.2-3.49,4.79-2,2.78-3.09,6-5,8.86a8.68,8.68,0,0,1-2.52,2.15c-.83.58-1.63,1.21-2.44,1.83-1.37,1-2.72,2.12-4.13,3.12s-2.94,2.25-4.39,3.38c-.91.7-1.81,1.41-2.72,2.1a8.33,8.33,0,0,1-1.57,1.15l.73.56c-.1.27.5-.18.15-.16l-.36-.86c-.15.17-.33.31-.49.46-.48.43.23,1.14.71.71Z" transform="translate(-1324.8 -1284.88)"/><path class="cls-6" d="M1577.08,1469.85c0,9-.61,18,.33,26.93a84.57,84.57,0,0,1,.8,8.85c0,.86-.15,1.69-.22,2.55a11.32,11.32,0,0,0,.35,3.27c.39,1.89.8,3.81,1.14,5.71,1.24,6.94,2.9,13.75,4.63,20.56,1.86,7.36,6.7,13.67,12.44,18.49a38.4,38.4,0,0,0,4.53,3.83,42.47,42.47,0,0,0,5.78,2.75,58.25,58.25,0,0,0,6.27,1.77c2.09.58,4.2,1.1,6.29,1.7a52.42,52.42,0,0,0,6.36,1.72,39,39,0,0,0,5.92.08c1.9,0,3.9.31,5.53-.85a3.76,3.76,0,0,0,1.71-3.51c-.27-1.6-1.59-3.08-2.25-4.57-.94-2.14-1.64-4.38-2.56-6.54-1.43-3.39-2.47-7.72-5.44-10.16s-6.81-2.79-10-4.42c-2-1-4-2.26-6-3.37s-4.11-2-6.06-3.22c-.94-.59-1.88-1.2-2.87-1.71a30.51,30.51,0,0,1-2.85-1.45c-1-.67-1.88-1.58-2.83-2.33s-2-1.51-2.95-2.27c-1.72-1.35-3.46-2.67-5.05-4.18a42.18,42.18,0,0,1-4.61-5.45,35.53,35.53,0,0,1-6.32-12.26,44.29,44.29,0,0,1-.8-6.48c-.18-1.73-.33-3.42-.36-5.16,0-1.43,0-2.87-.09-4.31,0-.63-1-.64-1,0,.2,3,0,6,.41,9.06.22,1.91.17,3.81.54,5.7a27.6,27.6,0,0,0,1.86,5.82,47.7,47.7,0,0,0,6.92,10.74,51.87,51.87,0,0,0,9.37,8.44c1.72,1.31,3.31,3,5.24,4s3.78,2,5.64,3.15,3.83,1.91,5.69,3,3.79,2.26,5.77,3.25a39.21,39.21,0,0,0,5.14,2,12.8,12.8,0,0,1,4.86,2.47,14.35,14.35,0,0,1,3.1,5.15c.79,2,1.65,3.93,2.36,5.92a51.75,51.75,0,0,0,2.25,5.64c.8,1.62,2.66,3.6,1.41,5.38-1.45,2.09-4.33,1.49-6.51,1.5a23,23,0,0,1-5.87-.24c-4.12-1-8.21-2.27-12.3-3.39a42.55,42.55,0,0,1-6.38-1.9,27.21,27.21,0,0,1-5.84-3.1c-1.55-1.25-3-2.63-4.53-3.94a29.13,29.13,0,0,1-3.94-4,37.88,37.88,0,0,1-5.84-9.31,36,36,0,0,1-1.61-5.58c-.39-1.84-1.1-3.59-1.51-5.43-.76-3.34-1.5-6.7-2.13-10.06s-1.46-6.8-2-10.23c-.25-1.73.19-3.48.13-5.22a35.14,35.14,0,0,0-.36-4.48c-1.28-7.79-.95-15.88-.82-23.74,0-2.2.06-4.4.07-6.6a.5.5,0,0,0-1,0Z" transform="translate(-1324.8 -1284.88)"/><path class="cls-6" d="M1621.79,1469.47a79.24,79.24,0,0,1,.45,9.62c0,5.69,0,11.37,0,17.06v17.45c0,2.78,0,5.56,0,8.34,0,2.33.88,4.56,1.62,6.75A42.84,42.84,0,0,1,1625,1533c.31,1.44.83,2.82,1.15,4.26.48,2.16.58,4.53,2.23,6.19a.5.5,0,0,0,.71-.71c-1.6-1.61-1.57-4.1-2.07-6.17-.29-1.22-.73-2.39-1-3.62s-.53-2.49-.92-3.71-.76-2.41-1.12-3.62a10.7,10.7,0,0,1-.76-3.5c0-2.69,0-5.38,0-8.07v-33.54a91.08,91.08,0,0,0-.45-11.08c-.07-.63-1.07-.64-1,0Z" transform="translate(-1324.8 -1284.88)"/><path class="cls-6" d="M1612.85,1514.35a15.43,15.43,0,0,1-5.1-.71,8.4,8.4,0,0,1-4-3.48,12.53,12.53,0,0,1-2-4.78c-.21-1.78-.08-3.57-.31-5.35-.41-3.28-.92-6.59-1.56-9.84s-1.59-6.42-2-9.72c-.49-3.59-1-7.17-1.53-10.76-.09-.63-1-.36-1,.27.46,3.39,1,6.77,1.44,10.15.48,3.58,1.47,7,2.16,10.51.33,1.67.59,3.35.83,5a59.32,59.32,0,0,1,.82,6.37,17.27,17.27,0,0,0,.45,4.92,16.7,16.7,0,0,0,2.33,4.47c2.35,3.12,5.71,3.87,9.44,3.92a.5.5,0,0,0,0-1Z" transform="translate(-1324.8 -1284.88)"/><path class="cls-6" d="M1606.85,1469.85c0,1.94,0,3.89,0,5.84a54.55,54.55,0,0,0,.08,5.72c.21,1.91.6,3.73.7,5.66a18.84,18.84,0,0,0,.82,4.72c.59,1.84,1,3.74,1.66,5.55.72,2,1.43,4,2.11,6,1.26,3.77.72,7.61.69,11.49a.5.5,0,0,0,1,0c0-3.75.5-7.41-.51-11.09-.55-2-1.29-4-2-5.87s-1.14-3.72-1.72-5.58a20.8,20.8,0,0,1-1-5.24c-.1-1.93-.48-3.75-.7-5.66a52,52,0,0,1-.08-5.72c0-2,0-3.9,0-5.84a.5.5,0,0,0-1,0Z" transform="translate(-1324.8 -1284.88)"/><path class="cls-6" d="M1537.94,1449.75c2.64,0,4.82-1.14,7.24-2a9.8,9.8,0,0,0,2.67-1.22,11.15,11.15,0,0,0,1.16-1.22c.64-.64,1.34-1.26,2-1.85a7.89,7.89,0,0,1,1.77-1.09,17.32,17.32,0,0,0,1.94-1.36c1.53-1,3.34-1.71,5-2.6a25.08,25.08,0,0,0,4-2.9c1.49-1.26,3.07-2.41,4.51-3.73s2.47-2.47,3.88-3.53c1.13-.86,2.51-1.33,3.61-2.17.56-.43,1-1,1.59-1.38s1.51-.69,2.23-1.08c1.46-.79,2.7-1.93,4.14-2.76a9.65,9.65,0,0,1,5.43-1.12c2,.07,4.07,0,6.11,0a39.24,39.24,0,0,1,11.3,1.57c1.94.59,3.87,1.2,5.23,2.81a3.69,3.69,0,0,1,.87,2.6c0,.41-.23,1,.1,1.38.95,1,2.14-2,.08-1.1-.58.26-.07,1.12.51.86l-.3-.55c.45.29.65.22.59-.22a2.92,2.92,0,0,0,0-1.14,4,4,0,0,0-.31-1.26,6.65,6.65,0,0,0-2.59-2.77,14.37,14.37,0,0,0-3.9-1.57,31.55,31.55,0,0,0-4.78-1.11,77.56,77.56,0,0,0-10.67-.48,39.4,39.4,0,0,0-4.86,0,9.51,9.51,0,0,0-3.66,1.4c-1.29.79-2.45,1.82-3.79,2.55-.67.36-1.41.6-2.07,1a11,11,0,0,0-1.58,1.31,27.81,27.81,0,0,1-3,1.77,25.49,25.49,0,0,0-3.53,2.94,46.81,46.81,0,0,1-3.81,3.37c-1.44,1.14-2.79,2.43-4.3,3.48a34.84,34.84,0,0,1-4.23,2.33,20.78,20.78,0,0,0-2.23,1.2,18.61,18.61,0,0,1-1.93,1.36,15,15,0,0,0-3.43,2.56,9.85,9.85,0,0,1-3.07,2.38c-2.53,1-5.1,2.27-7.86,2.32a.5.5,0,0,0,0,1Z" transform="translate(-1324.8 -1284.88)"/><path class="cls-6" d="M1541.43,1448a14.45,14.45,0,0,0-2.35.5c-.8.2-1.59.25-2.39.41-2,.43-4,1-6,1.47-2.27.55-4.92,1.42-7.27,1.16-.82-.09-1.24-.8-2-1.16A20.8,20.8,0,0,1,1519,1449c-1.67-1.14-3.09-2.63-4.78-3.71-2.14-1.37-3.82-3.35-6-4.64-.92-.56-1.91-1-2.83-1.53a38.6,38.6,0,0,1-3.34-2.49,79.6,79.6,0,0,1-6.52-4.83c-.78-.72-1.65-.73-2.53-1.21a14.45,14.45,0,0,1-2.11-1.6c-.72-.6-1.42-1.2-2.12-1.81a4.43,4.43,0,0,0-1.23-1,.51.51,0,0,0-.62.62,1.52,1.52,0,0,0,.69.79.5.5,0,0,0,.73-.56c-.05-.36-.43-.7-.64-1a15.3,15.3,0,0,0-1.87-2,25.94,25.94,0,0,0-4.18-3c-1.58-.94-3.25-1.7-4.89-2.53-1.81-.91-3.56-1.94-5.36-2.88a19.74,19.74,0,0,0-5-2.13c-.91-.19-1.83-.25-2.74-.42s-1.73-.57-2.64-.72a31.3,31.3,0,0,0-5.39,0,13.1,13.1,0,0,0-4.64,1.08c-1.6.66-2.86,2-4.35,2.89-.77.45-1.61.75-2.41,1.15s-1.64,1-2.47,1.48c-1.75,1-3.57,1.87-5.28,2.93a7.82,7.82,0,0,0-2.68,2.4c-1.44,2.4,1.24,3.25,3.19,3.29.93,0,1.86-.06,2.79-.08s2.43-.28,3.36.17c1.57.77,2.61,3.11,3.29,4.62,1.63,3.63,3.35,7.19,5.16,10.73s4.06,6.73,5.72,10.3c.85,1.83,2,3.62,2.66,5.51.25.68.42,1.4.73,2.06.42.9,1,1.67,1.53,2.53.94,1.67,1.7,3.42,2.7,5.06a47.8,47.8,0,0,0,3.09,4.41c1.18,1.5,2.44,2.93,3.76,4.31s2.46,2.93,3.92,4.25,2.7,2.67,4.23,3.81a50.9,50.9,0,0,0,4.83,3.11c1.68,1,3.32,2,5.09,2.78s3,1.83,4.57,2.71,3.06,2.12,4.59,3.2,3.09,2,4.64,2.85c3.06,1.78,6.77,2.35,10.25,2.64a35.69,35.69,0,0,0,11.77-1.25c3.8-1,7.56-2,11.27-3.23a36.79,36.79,0,0,0,5.13-2.19c1.59-.82,3.06-1.79,4.7-2.49a15.77,15.77,0,0,0,4-2.18c.49-.41-.22-1.12-.71-.71a16.4,16.4,0,0,1-4.26,2.2c-1.49.65-2.83,1.57-4.27,2.32a64,64,0,0,1-10.59,3.9c-1.69.53-3.44.88-5.16,1.31s-3.6.91-5.44,1.17a33.11,33.11,0,0,1-12.22-.78,14.73,14.73,0,0,1-4.35-1.78c-1.49-.91-3-1.75-4.47-2.76a57.6,57.6,0,0,0-8.59-5.61,67.75,67.75,0,0,1-9.28-5.33,33.87,33.87,0,0,1-4.22-3.62c-.67-.63-1.39-1.2-2-1.84s-1.21-1.53-1.85-2.26a77,77,0,0,1-6.9-8.38,41.89,41.89,0,0,1-2.53-4.41,43.62,43.62,0,0,1-2.68-5,30.57,30.57,0,0,0-1.71-3.84c-.89-1.8-1.65-3.66-2.58-5.44-.76-1.46-1.74-2.8-2.53-4.26-.94-1.74-2-3.43-2.82-5.22s-1.68-3.31-2.53-5-1.36-3.22-2.13-4.8a13.14,13.14,0,0,0-2.57-3.7c-1.12-1.06-2.45-.89-3.92-.87s-3.78.48-5.31-.15c-1.7-.7,0-2.28.86-2.95a33.78,33.78,0,0,1,4.52-2.61c1.59-.86,3.09-2,4.73-2.68a31,31,0,0,0,5-3.13,10.28,10.28,0,0,1,5.34-1.61c1.9,0,4.11-.37,6,.16a21.65,21.65,0,0,0,2.86.69,14.51,14.51,0,0,1,2.91.62,45.41,45.41,0,0,1,5.92,3c1.78,1,3.59,1.86,5.4,2.77a34.1,34.1,0,0,1,4.85,2.92,20.05,20.05,0,0,1,2.32,2c.38.39,1.46,1.3,1.54,1.83l.73-.56s-.24-.28-.22-.2l-.62.62c.4.13.94.84,1.25,1.12.66.57,1.33,1.13,2,1.69s1.12.92,1.73,1.32c.81.54,1.83.55,2.56,1.21,1.85,1.67,4,2.94,6,4.42,1.06.79,2.1,1.63,3.16,2.43a23.71,23.71,0,0,0,3.1,1.78c2.33,1.25,4,3.39,6.28,4.8,1.73,1.08,3.18,2.56,4.85,3.73a17.84,17.84,0,0,0,2.25,1.38,4.63,4.63,0,0,1,1.18.69,4.2,4.2,0,0,0,.63.56c1.61.89,4.4,0,6.06-.32,2.33-.42,4.67-1,7-1.64a26.52,26.52,0,0,1,3.07-.63c1-.16,2-.61,3.06-.68.64,0,.64-1,0-1Z" transform="translate(-1324.8 -1284.88)"/><path class="cls-6" d="M1422.27,1468.67c0,2.51,0,5,.13,7.53.14,2.22.6,4.4.56,6.61s-.41,4.59-.62,6.85c-.24,2.53-.92,5-1.13,7.5-.08,1-.18,2.08-.2,3.14a29.54,29.54,0,0,1-.79,4.85,43.33,43.33,0,0,0-.65,4.53c-.19,2.19-1.55,4-2.12,6.16a83.25,83.25,0,0,0-2.07,9.9c-.25,1.72-.6,3.42-1,5.11s-.57,3.19-1,4.71a27.45,27.45,0,0,0-.93,3.3,18.22,18.22,0,0,1-.42,2.56l.62-.34h0l.37.48a2,2,0,0,1,.1-.76l-.74.3c-.46-.21-.16-.17-.34.17a1.63,1.63,0,0,0-.1.46,2.71,2.71,0,0,0,.07,1,3.73,3.73,0,0,0,1.15,1.65,16.19,16.19,0,0,0,4.39,2.64c1.77.74,3.37,2.06,5.25,2.51a12.33,12.33,0,0,0,6-.53c8.14-2.31,16.21-6.84,21.14-13.87a27.15,27.15,0,0,0,2.87-5.13,46.93,46.93,0,0,0,1.8-6c.46-1.75,1-3.48,1.38-5.26s.51-3.8.76-5.71c.53-4.09,1.79-8,2.63-12.09.68-3.24,1.32-6.47,1.86-9.73.07-.38-.1.32,0-.06,0-.17.12-.33.16-.51.65-2.38,1.1-4.83,1.71-7.22,1.12-4.42,2.58-9,2.57-13.55a.5.5,0,0,0-1,0c0,3.82-1.08,7.61-2,11.3-.77,3-1.48,6.76-2.27,9.47.07-.25-.06.1-.08.16s-.07.34-.1.51c-.27,1.52-.49,3-.79,4.56-.69,3.55-1.45,7.1-2.35,10.61a55.05,55.05,0,0,0-1.25,6c-.25,1.82-.38,3.67-.7,5.49-.27,1.54-.72,3-1.14,4.54-.53,1.88-.93,3.8-1.54,5.65-2.64,8.07-9.57,13.88-17.08,17.29-4.13,1.87-9.8,4.72-14.19,2.32-1.72-.94-3.6-1.65-5.26-2.68a11.78,11.78,0,0,1-2.23-1.6,2,2,0,0,1-.68-1.69c0-.38.19-.73.2-1.11a.5.5,0,0,0-.25-.43h0a.51.51,0,0,0-.74.3,2.71,2.71,0,0,0-.13,1,.53.53,0,0,0,.36.49h0a.51.51,0,0,0,.62-.35c.51-1.67.48-3.43,1.08-5.1a30.12,30.12,0,0,0,.93-3.86c.34-1.53.69-3.06,1-4.6.67-3.52,1.21-7,2-10.51a25.21,25.21,0,0,1,.71-2.58c.38-1,.91-2,1.32-3a19.51,19.51,0,0,0,.8-4.71c.2-1.44.53-2.83.8-4.25a35.45,35.45,0,0,0,.37-4.36c.18-2.63.69-5.15,1.12-7.75.33-2,.34-4.06.64-6.08.39-2.63-.11-5-.32-7.61-.24-2.87-.18-5.74-.21-8.61a.5.5,0,0,0-1,0Z" transform="translate(-1324.8 -1284.88)"/><path class="cls-6" d="M1412,1542.58c0,5.31-.94,10.58-1,15.9,0,4.43.93,9.42,4.79,12a12.24,12.24,0,0,0,2.63,1.44c1.2.44,2.47.39,3.7.71a13.78,13.78,0,0,0,3.3.65c1.39,0,2.78-.15,4.17-.12a10.42,10.42,0,0,0,3.39-.22,23.37,23.37,0,0,0,3.34-1.62,21.6,21.6,0,0,0,3.29-1.75,14.45,14.45,0,0,0,2.59-2.82c.79-1,1.73-1.8,2.5-2.79a32.71,32.71,0,0,0,2.17-3.2,35.62,35.62,0,0,0,1.93-3.25,9,9,0,0,1,1.07-2,15.53,15.53,0,0,0,1-1.37,35.33,35.33,0,0,0,1.81-3.71c.63-1.27,1.54-2.38,2.18-3.66,1.25-2.51,2.15-5.2,3.23-7.8.53-1.25.89-2.54,1.34-3.82s1.08-2.5,1.58-3.77.79-2.76,1.21-4.13a23.91,23.91,0,0,0,.88-4.18,70.31,70.31,0,0,0,.63-8.94,69.92,69.92,0,0,1,.16-9,38.18,38.18,0,0,0,.35-4.9c0-1.45-.11-2.91,0-4.36a35.65,35.65,0,0,1,.26-4.25c.29-1.58.61-3.15.88-4.73.92-5.24,1.9-10.46,1.91-15.79a.5.5,0,0,0-1,0c0,1.67-.08,3.36-.21,5-.22,2.8-.91,5.53-1.34,8.3-.4,2.56-.92,5.1-1.33,7.66a37,37,0,0,0-.14,6.49c.05,2.86-.34,5.61-.51,8.44s0,5.72,0,8.58a43,43,0,0,1-3.23,16.82c-1,2.35-1.73,4.81-2.74,7.17s-1.81,5.14-3.18,7.47c-.62,1-1.34,2-1.87,3.11a28.32,28.32,0,0,1-1.84,3.7,15.34,15.34,0,0,0-1.73,2.51,32.17,32.17,0,0,1-2.08,3.77c-.62,1-1.25,2-2,2.94-.82,1.09-1.82,2-2.67,3a13.43,13.43,0,0,1-2.74,2.89,31.14,31.14,0,0,1-3.3,1.7,10.6,10.6,0,0,1-3.75,1.54c-1.23.13-2.51,0-3.75,0a16.06,16.06,0,0,1-4-.06c-1-.22-2-.59-3-.72a10,10,0,0,1-6.62-3.65c-1.62-2.17-2.11-5.57-2.24-8.2-.26-5.68.91-11.35.94-17a.5.5,0,0,0-1,0Z" transform="translate(-1324.8 -1284.88)"/><path class="cls-6" d="M1433.36,1468.67c0,7.91,1.44,15.95-.23,23.76-.34,1.61-.77,3.2-1.16,4.8a52.1,52.1,0,0,1-1.69,5c-.7,2-1.7,3.72-2.5,5.63a20.51,20.51,0,0,0-1.11,6.23,44.57,44.57,0,0,0-.16,7.12,4.15,4.15,0,0,0,1.79,3.15,6.52,6.52,0,0,0,4.23,1.38c1.37-.14,1.82-1.21,2.18-2.4,1.25-4.19,1.79-8.59,3.06-12.77.3-1,.71-1.93,1-2.94s.48-2.29.74-3.43c.51-2.34.82-4.76,1.15-7.13.16-1.17.42-2.33.55-3.5a36.65,36.65,0,0,0,0-4.06v-7.76c0-4.35,0-8.71,0-13.06a.5.5,0,0,0-1,0c0,7.69-.06,15.39,0,23.09a38.94,38.94,0,0,1-.82,6.7c-.38,2.18-.67,4.36-1.11,6.53s-1.13,3.93-1.67,5.93-.92,4.28-1.46,6.39c-.46,1.81-.85,3.64-1.34,5.44-.23.83-.44,1.89-1.45,2a4.77,4.77,0,0,1-2.62-.69,4.56,4.56,0,0,1-1.77-1.39,5.35,5.35,0,0,1-.51-3,60.4,60.4,0,0,1,.29-6.73,17.61,17.61,0,0,1,1.83-6.52,35.49,35.49,0,0,0,1.87-4.56c.54-1.51,1.11-2.95,1.5-4.5s.8-3.09,1.13-4.65c.3-1.4.52-2.87.73-4.28a36.13,36.13,0,0,0,0-6.74c-.18-4.32-.44-8.68-.46-13a.5.5,0,0,0-1,0Z" transform="translate(-1324.8 -1284.88)"/><path class="cls-6" d="M1500.71,1684.42h47.58a.5.5,0,0,0,0-1h-47.58a.5.5,0,0,0,0,1Z" transform="translate(-1324.8 -1284.88)"/><path d="M1429.69,1729.76c-.14,1.08-.83,5.41-1.13,6.69-9.46,1.52-14.18,2.37-23.58,4.25-.09-.46-.13-.68-.22-1.13,4.45-1.18,4.73-1.59,4.13-4.9l-2.92-15.92c-.66-3.59-1.25-3.7-5.08-3.29l-.21-1.13c6.17-1.13,9.26-1.65,15.46-2.63,4.75-.75,6.72-1.07,7.33-1.2.2,1,.87,4,1.4,6.06l-1.47.43a12,12,0,0,0-2-2.81c-1-1.2-2.23-1.31-5.26-.83-1.92.3-2.87.46-4.79.78-1.56.26-1.64.4-1.44,1.57.63,3.55.95,5.33,1.57,8.89,2.21-.39,3.31-.57,5.52-.94,3.72-.62,3.87-1.25,4-4.08l1.55-.24c.52,3.3.79,5,1.31,8.26l-1.53.24c-1.1-2.78-1.57-3.13-5.14-2.53l-5.44.94c.56,3.2.85,4.81,1.41,8,.5,2.82,1.61,2.86,4,2.47,1.81-.33,2.72-.48,4.53-.79,3-.51,3.39-1,4.31-2.16a18.39,18.39,0,0,0,2.07-4.11Z" transform="translate(-1324.8 -1284.88)"/><path d="M1449.05,1719.31c4.87.07,9,1.49,9.37,5.32.29,2.69-1.38,5-4.1,6.63a20.61,20.61,0,0,1-8.27,2.62c-4.8.64-7.2,1-12,1.71-.07-.45-.1-.67-.17-1.12,4.1-1,4.3-1.33,3.86-4.48-.89-6.39-1.33-9.59-2.22-16-.46-3.31-1-3.54-5.1-3.26-.06-.44-.09-.67-.16-1.11,5.31-.73,8-1.06,13.3-1.68,3.81-.44,6.26-.17,8,.53a5,5,0,0,1,3.49,4.12C1455.45,1716.31,1451.78,1718.43,1449.05,1719.31Zm-5.79.22c5.49-.69,7.53-2.67,7.15-5.92-.33-2.77-2.76-4.69-7.62-4.12a6.49,6.49,0,0,0-2.79.74c-.37.28-.47.75-.3,2,.41,3,.61,4.56,1,7.6Zm-1.29,9.8c.38,2.86,1.3,3.45,4.78,3,3.81-.5,7.34-2.6,6.87-6.76s-4.26-5.4-10.33-4.63l-2.39.31C1441.32,1724.48,1441.54,1726.09,1442,1729.33Z" transform="translate(-1324.8 -1284.88)"/><path d="M1488.29,1723.45c-.23,1-1.31,5.12-1.72,6.33-9.54.66-14.3,1.08-23.81,2.09,0-.44-.07-.66-.11-1.1,4.53-.76,4.84-1.13,4.53-4.36-.58-6.21-.88-9.32-1.46-15.54-.33-3.5-.91-3.66-4.75-3.59,0-.44-.07-.66-.11-1.11,6.23-.55,9.35-.8,15.58-1.21,4.79-.32,6.78-.46,7.39-.53.11,1,.51,3.89.85,5.94l-1.5.28a11.74,11.74,0,0,0-1.72-2.87c-.91-1.24-2.1-1.45-5.15-1.24-1.93.13-2.9.2-4.83.35-1.57.11-1.67.24-1.57,1.38.31,3.47.46,5.21.77,8.68,2.22-.19,3.33-.28,5.56-.44,3.75-.29,4-.88,4.37-3.58l1.56-.1c.23,3.22.34,4.83.57,8l-1.55.11c-.85-2.77-1.28-3.14-4.88-2.87l-5.49.45c.27,3.12.41,4.68.69,7.81.24,2.75,1.34,2.88,3.8,2.71l4.57-.38c3-.23,3.46-.65,4.47-1.71a17.61,17.61,0,0,0,2.43-3.76Z" transform="translate(-1324.8 -1284.88)"/><path d="M1525.93,1704.57c-3.26.25-4.36.67-4.45,2.39-.07,1.19-.12,2.82-.08,6.37.07,6.13.11,9.19.18,15.31l-1.87,0q-10.79-10-22-19.51c.18,3.87.27,5.8.46,9.67.16,3.48.41,5.24.54,6.34.23,1.93,1.45,2.48,5,2.56,0,.43,0,.65,0,1.08-4.77.2-7.16.33-11.93.62,0-.44,0-.65-.06-1.09,3-.38,4.18-1,4.29-2.92a57.09,57.09,0,0,0-.08-6.53l-.5-9.88a3,3,0,0,0-1.14-2.51c-1-.9-2.1-1.12-4.61-1.2,0-.44,0-.65-.06-1.09,3.06-.14,4.59-.2,7.65-.31q11.13,9.19,21.93,18.81c-.06-3.74-.09-5.61-.14-9.36a54.28,54.28,0,0,0-.36-6.34c-.21-1.68-1.35-2.26-5.43-2.41,0-.43,0-.64,0-1.07,5-.06,7.56-.06,12.6,0C1525.93,1703.93,1525.93,1704.14,1525.93,1704.57Z" transform="translate(-1324.8 -1284.88)"/><path d="M1555.73,1722.74c-.34,1-1.82,4.75-2.35,5.85-9.56-.32-14.33-.39-23.89-.37v-1.06c4.58-.28,4.93-.6,5-3.7,0-6,.07-9,.12-15,0-3.37-.53-3.58-4.35-3.9v-1.06c6.25.09,9.37.17,15.61.4,4.79.18,6.78.25,7.4.24,0,.94.12,3.75.25,5.74l-1.53.12a11,11,0,0,0-1.42-2.91c-.77-1.27-1.94-1.59-5-1.7-1.94-.07-2.9-.1-4.84-.15-1.57,0-1.68.06-1.69,1.16,0,3.33-.08,5-.12,8.34,2.22,0,3.34.07,5.57.13,3.76.11,4-.43,4.7-3l1.57.06-.25,7.71-1.55,0c-.56-2.72-1-3.12-4.56-3.22-2.2-.06-3.3-.08-5.51-.12l-.1,7.51c0,2.64,1,2.87,3.5,3l4.58.1c3,.08,3.51-.27,4.63-1.18a17.06,17.06,0,0,0,2.79-3.34Z" transform="translate(-1324.8 -1284.88)"/><path d="M1586.53,1724.3c-.46,1.21-1.94,4.53-2.56,6.06-10.21-.83-15.31-1.15-25.53-1.57l-.42-.62c7.27-7,14.69-13.91,22.27-20.58-4-.35-6-.51-10-.8-4.52-.33-5.3-.14-6.42.94a11.51,11.51,0,0,0-2.08,3l-1.52-.12c.35-1.92,1.11-5.12,1.29-6.75l1.33.08c.51.93,1.13.93,2.65,1,8.23.55,12.35.89,20.56,1.69l.36.62c-7.66,6.35-15.11,13.15-22.14,20.18,1.52.15,4.72.36,8.07.58,6.44.41,7.93.37,9.4-.65a13.4,13.4,0,0,0,3.33-3.47Z" transform="translate(-1324.8 -1284.88)"/><path d="M1615.73,1728c-.42.88-2.24,4.37-2.87,5.38-9.5-1.21-14.26-1.72-23.79-2.58,0-.4,0-.61.09-1,4.59.15,5-.12,5.27-3.09.58-5.71.87-8.57,1.46-14.28.32-3.22-.21-3.48-4-4.13l.09-1c6.22.66,9.33,1,15.53,1.84,4.76.62,6.74.87,7.35.92-.06.9-.21,3.6-.26,5.51l-1.53,0a10.07,10.07,0,0,0-1.16-2.91c-.66-1.29-1.79-1.7-4.82-2.09l-4.81-.6c-1.57-.19-1.68-.1-1.8.95-.34,3.18-.52,4.78-.86,8,2.22.25,3.32.38,5.54.65,3.74.46,4,0,5-2.39l1.55.2c-.37,2.94-.56,4.41-.93,7.35l-1.54-.19c-.32-2.65-.68-3.07-4.26-3.5-2.19-.27-3.29-.39-5.48-.64-.31,2.87-.47,4.3-.78,7.17-.28,2.53.78,2.85,3.23,3.16,1.83.2,2.74.3,4.56.52,3,.35,3.53.06,4.72-.7a16.36,16.36,0,0,0,3.09-2.93Z" transform="translate(-1324.8 -1284.88)"/><path d="M1647.23,1739c-.63-.11-1.16-.25-1.79-.39-3.5-.82-5.28-1.81-7.06-4.3-1.48-2.07-2.9-4.56-4.18-6.6-.81-1.28-1.42-1.6-3.94-2l-1.74-.27-.85,5.51c-.47,3,0,3.23,3.9,4.12-.06.4-.09.59-.16,1-5.2-.81-7.81-1.19-13-1.9.06-.4.09-.59.14-1,4.11.23,4.47.16,4.92-2.84l2.1-14.06c.44-3-.09-3.2-4-4.12l.14-1c5.16.78,7.74,1.2,12.88,2.08,3.68.63,6.1,1.42,7.86,2.61s3,3.1,2.59,5.21c-.54,3-3.61,4.33-7.47,4.82.71,1.23,2.42,4,3.63,5.74a32.59,32.59,0,0,0,3.22,4.25,8,8,0,0,0,3.26,2.22C1647.45,1738.39,1647.38,1738.58,1647.23,1739Zm-16.14-14.38c2.58.41,4.26.41,5.62-.11a4.55,4.55,0,0,0,3.47-3.81c.65-3.71-2.69-5.72-6.56-6.38a6.3,6.3,0,0,0-2.73-.09c-.48.17-.7.49-.84,1.41-.53,3.44-.8,5.16-1.34,8.6Z" transform="translate(-1324.8 -1284.88)"/></g></svg>